<svg preserveAspectRatio="none" width="100%" height="100%" overflow="visible" style="display: block;" viewBox="0 0 15 13.3333" fill="none" xmlns="http://www.w3.org/2000/svg">
<g id="Union">
<path d="M5 10C5.92047 10 6.66667 10.7462 6.66667 11.6667C6.66667 12.5871 5.92047 13.3333 5 13.3333H1.66667C0.746192 13.3333 0 12.5871 0 11.6667C0 10.7462 0.746192 10 1.66667 10H5Z" fill="var(--fill-0, #232018)"/>
<path d="M13.3333 10C14.2538 10 15 10.7462 15 11.6667C15 12.5871 14.2538 13.3333 13.3333 13.3333H10C9.07953 13.3333 8.33333 12.5871 8.33333 11.6667C8.33333 10.7462 9.07953 10 10 10H13.3333Z" fill="var(--fill-0, #232018)"/>
<path d="M5 5C5.92047 5 6.66667 5.74619 6.66667 6.66667C6.66667 7.58714 5.92047 8.33333 5 8.33333H1.66667C0.746192 8.33333 0 7.58714 0 6.66667C0 5.74619 0.746192 5 1.66667 5H5Z" fill="var(--fill-0, #232018)"/>
<path d="M13.3333 5C14.2538 5 15 5.74619 15 6.66667C15 7.58714 14.2538 8.33333 13.3333 8.33333H10C9.07953 8.33333 8.33333 7.58714 8.33333 6.66667C8.33333 5.74619 9.07953 5 10 5H13.3333Z" fill="var(--fill-0, #232018)"/>
<path d="M5 0C5.92047 0 6.66667 0.746192 6.66667 1.66667C6.66667 2.58714 5.92047 3.33333 5 3.33333H1.66667C0.746192 3.33333 0 2.58714 0 1.66667C0 0.746192 0.746192 0 1.66667 0H5Z" fill="var(--fill-0, #232018)"/>
<path d="M13.3333 0C14.2538 0 15 0.746192 15 1.66667C15 2.58714 14.2538 3.33333 13.3333 3.33333H10C9.07953 3.33333 8.33333 2.58714 8.33333 1.66667C8.33333 0.746192 9.07953 0 10 0H13.3333Z" fill="var(--fill-0, #232018)"/>
</g>
</svg>
