<svg preserveAspectRatio="none" width="100%" height="100%" overflow="visible" style="display: block;" viewBox="0 0 18 18" fill="none" xmlns="http://www.w3.org/2000/svg">
<g id="Food/eggs-1">
<path id="Union" d="M6.18457 1.68359C7.5313 1.68359 8.6709 2.53931 9.44531 3.75684C10.1447 4.85658 10.5878 6.30671 10.6709 7.89844C12.0866 7.99809 13.376 8.40545 14.3652 9.0332C15.5046 9.75625 16.3144 10.8249 16.3145 12.0947C16.3145 13.3646 15.5046 14.4332 14.3652 15.1562C13.219 15.8836 11.67 16.3154 9.98828 16.3154V16.3145C7.97379 16.3877 6.2238 15.0926 5.63965 13.2568C3.30759 12.8888 1.58502 10.827 1.68359 8.42773C1.68761 6.63237 2.14991 4.98225 2.9248 3.76172C3.69881 2.54272 4.83728 1.68372 6.18457 1.68359ZM9.96484 8.99902C8.17249 8.92456 6.65537 10.3065 6.56055 12.0947C6.65535 13.883 8.17248 15.2649 9.96484 15.1904C9.97261 15.1901 9.98051 15.1904 9.98828 15.1904C11.4897 15.1904 12.8228 14.8025 13.7627 14.2061C14.7093 13.6053 15.1895 12.845 15.1895 12.0947C15.1894 11.3445 14.7093 10.5842 13.7627 9.9834C12.8589 9.40981 11.5913 9.0303 10.1602 9.00195C10.1481 9.00272 10.1362 9.00586 10.124 9.00586C10.1061 9.00586 10.0888 9.00163 10.0713 9C10.0437 8.99974 10.016 8.99902 9.98828 8.99902C9.98051 8.99902 9.97261 8.99935 9.96484 8.99902ZM6.18457 2.80859C5.35627 2.80872 4.52546 3.33831 3.87402 4.36426C3.22683 5.38362 2.80863 6.82694 2.80859 8.45117C2.80859 8.45881 2.80794 8.46697 2.80762 8.47461C2.73828 10.1661 3.85951 11.6369 5.43652 12.0654C5.54102 9.80556 7.33409 8.02103 9.54297 7.87988C9.45854 6.48737 9.06702 5.25923 8.49609 4.36133C7.84492 3.33751 7.01362 2.80859 6.18457 2.80859Z" fill="var(--fill-0, #232018)"/>
</g>
</svg>
