<svg preserveAspectRatio="none" width="100%" height="100%" overflow="visible" style="display: block;" viewBox="0 0 15.9992 14.3326" fill="none" xmlns="http://www.w3.org/2000/svg">
<g id="Group 1623">
<path id="Vector" d="M14.845 5.62672C15.2812 6.37818 15.4992 6.75383 15.4992 7.1663C15.4992 7.57878 15.2812 7.95443 14.845 8.70589L12.7627 12.293C12.3267 13.0445 12.1085 13.4201 11.7494 13.6263C11.3902 13.8326 10.9541 13.8326 10.0818 13.8326H5.91737C5.04508 13.8326 4.60894 13.8326 4.2498 13.6263C3.89065 13.4201 3.67249 13.0445 3.23652 12.293L1.15413 8.70589C0.717988 7.95443 0.5 7.57878 0.5 7.1663C0.5 6.75383 0.717988 6.37818 1.15413 5.62672L3.23652 2.03952C3.67249 1.28818 3.89065 0.912512 4.2498 0.706257C4.60894 0.500001 5.04508 0.500001 5.91737 0.500001H10.0818C10.9541 0.500001 11.3902 0.500001 11.7494 0.706257C12.1085 0.912512 12.3267 1.28818 12.7627 2.03952L14.845 5.62672Z" stroke="var(--stroke-0, #666259)" stroke-linecap="round" stroke-linejoin="round"/>
<path id="Vector 22" d="M4.66602 1.33358L7.99917 7.16659M4.66602 12.9996L7.99917 7.16659M7.99917 7.16659H15.4988" stroke="var(--stroke-0, #666259)" stroke-linecap="round"/>
</g>
</svg>
