<svg preserveAspectRatio="none" width="100%" height="100%" overflow="visible" style="display: block;" viewBox="0 0 18 13.5" fill="none" xmlns="http://www.w3.org/2000/svg">
<g id="Group 1620">
<path id="Vector" d="M13.1075 3.5762C13.3692 4.0271 13.5 4.2525 13.5 4.5C13.5 4.7475 13.3692 4.9729 13.1075 5.4238L11.858 7.5762C11.5964 8.0271 11.4655 8.2525 11.25 8.3762C11.0345 8.5 10.7728 8.5 10.2494 8.5H7.7506C7.2272 8.5 6.9655 8.5 6.75 8.3762C6.5345 8.2525 6.4036 8.0271 6.142 7.5762L4.8925 5.4238C4.6308 4.9729 4.5 4.7475 4.5 4.5C4.5 4.2525 4.6308 4.0271 4.8925 3.5762L6.142 1.42376C6.4036 0.972932 6.5345 0.747522 6.75 0.623762C6.9655 0.500002 7.2272 0.500002 7.7506 0.500002H10.2494C10.7728 0.500002 11.0345 0.500002 11.25 0.623762C11.4655 0.747522 11.5964 0.972932 11.858 1.42376L13.1075 3.5762Z" stroke="var(--stroke-0, #666259)" stroke-linecap="round" stroke-linejoin="round"/>
<path id="Vector 19" d="M5 6L3.4 7.2C3.14819 7.38886 3 7.68524 3 8V12.5" stroke="var(--stroke-0, #666259)" stroke-linecap="round"/>
<path id="Vector 20" d="M11.5 8.5L12.3321 9.74808C12.4416 9.91234 12.5 10.1054 12.5 10.3028V13M13.5 5L15.3321 7.74808C15.4416 7.91234 15.5 8.10535 15.5 8.30278V12.5M0.5 13H17.5" stroke="var(--stroke-0, #666259)" stroke-linecap="round"/>
<path id="Vector 21" d="M9 8.5L9.83205 9.74808C9.94156 9.91234 10 10.1054 10 10.3028V13" stroke="var(--stroke-0, #666259)" stroke-linecap="round"/>
<path id="Vector 22" d="M7 1L9 4.5M7 8L9 4.5M9 4.5H13.5" stroke="var(--stroke-0, #666259)" stroke-linecap="round"/>
</g>
</svg>
