<svg preserveAspectRatio="none" width="100%" height="100%" overflow="visible" style="display: block;" viewBox="0 0 13 13" fill="none" xmlns="http://www.w3.org/2000/svg">
<g id="Vector">
<path d="M3.83333 7.33333C4.10948 7.33333 4.33333 7.55719 4.33333 7.83333C4.33333 8.29386 4.70614 8.66667 5.16667 8.66667C5.44281 8.66667 5.66667 8.89052 5.66667 9.16667C5.66667 9.44281 5.44281 9.66667 5.16667 9.66667C4.15386 9.66667 3.33333 8.84614 3.33333 7.83333C3.33333 7.55719 3.55719 7.33333 3.83333 7.33333Z" fill="var(--fill-0, black)"/>
<path d="M7.83333 3.33333C8.84614 3.33333 9.66667 4.15386 9.66667 5.16667C9.66667 5.44281 9.44281 5.66667 9.16667 5.66667C8.89052 5.66667 8.66667 5.44281 8.66667 5.16667C8.66667 4.70614 8.29386 4.33333 7.83333 4.33333C7.55719 4.33333 7.33333 4.10948 7.33333 3.83333C7.33333 3.55719 7.55719 3.33333 7.83333 3.33333Z" fill="var(--fill-0, black)"/>
<path fill-rule="evenodd" clip-rule="evenodd" d="M11.1667 0C12.1795 0 13 0.820524 13 1.83333V7.83333C13 8.84614 12.1795 9.66667 11.1667 9.66667H9.66667V11.1667C9.66667 12.1795 8.84614 13 7.83333 13H1.83333C0.820524 13 0 12.1795 0 11.1667V5.16667C0 4.15386 0.820524 3.33333 1.83333 3.33333H3.33333V1.83333C3.33333 0.820524 4.15386 0 5.16667 0H11.1667ZM5.16667 1C4.70614 1 4.33333 1.37281 4.33333 1.83333V3.33333H5.83333C6.10948 3.33333 6.33333 3.55719 6.33333 3.83333C6.33333 4.10948 6.10948 4.33333 5.83333 4.33333H4.33333V5.83333C4.33333 6.10948 4.10948 6.33333 3.83333 6.33333C3.55719 6.33333 3.33333 6.10948 3.33333 5.83333V4.33333H1.83333C1.37281 4.33333 1 4.70614 1 5.16667V11.1667C1 11.6272 1.37281 12 1.83333 12H7.83333C8.29386 12 8.66667 11.6272 8.66667 11.1667V9.66667H7.16667C6.89052 9.66667 6.66667 9.44281 6.66667 9.16667C6.66667 8.89052 6.89052 8.66667 7.16667 8.66667H8.66667V7.16667C8.66667 6.89052 8.89052 6.66667 9.16667 6.66667C9.44281 6.66667 9.66667 6.89052 9.66667 7.16667V8.66667H11.1667C11.6272 8.66667 12 8.29386 12 7.83333V1.83333C12 1.37281 11.6272 1 11.1667 1H5.16667Z" fill="var(--fill-0, black)"/>
</g>
</svg>
