<svg preserveAspectRatio="none" width="100%" height="100%" overflow="visible" style="display: block;" viewBox="0 0 17.7541 17.875" fill="none" xmlns="http://www.w3.org/2000/svg">
<g id="Vector">
<path d="M6.34766 15.6309C6.91485 15.6883 7.3584 16.1663 7.3584 16.75C7.3584 17.3712 6.85461 17.875 6.2334 17.875C5.61312 17.8747 5.10733 17.3707 5.11035 16.7461C5.11037 16.1232 5.61651 15.6253 6.23242 15.625L6.34766 15.6309Z" fill="var(--fill-0, white)"/>
<path d="M14.957 15.6309C15.5242 15.6884 15.9658 16.166 15.9688 16.7461V16.75L15.9629 16.8652C15.9051 17.4323 15.4261 17.875 14.8438 17.875C14.2616 17.8749 13.7823 17.4323 13.7246 16.8652L13.7188 16.75C13.7166 16.1252 14.2245 15.6251 14.8418 15.625L14.957 15.6309Z" fill="var(--fill-0, white)"/>
<path fill-rule="evenodd" clip-rule="evenodd" d="M2.67871 0C3.0301 0 3.33474 0.243952 3.41113 0.586914L3.94727 3H16.0039C17.1189 3.00012 17.9471 4.02763 17.7148 5.11621L16.2129 12.1172C16.0396 12.9238 15.3273 13.4999 14.502 13.5H6.08496C5.31165 13.4999 4.63693 12.9933 4.41309 12.2656L4.37402 12.1172L2.6123 3.90723C2.61071 3.89978 2.60976 3.89223 2.6084 3.88477L2.07812 1.5H0.75C0.335786 1.5 0 1.16421 0 0.75C0 0.335786 0.335786 0 0.75 0H2.67871ZM5.84082 11.8027L5.87305 11.8818C5.91757 11.9537 5.99713 11.9999 6.08496 12H14.502C14.6203 11.9999 14.7212 11.9178 14.7461 11.8027L16.248 4.80273C16.2812 4.64579 16.1624 4.50012 16.0039 4.5H4.27344L5.84082 11.8027Z" fill="var(--fill-0, white)"/>
</g>
</svg>
