<svg preserveAspectRatio="none" width="100%" height="100%" overflow="visible" style="display: block;" viewBox="0 0 13.0052 13.0052" fill="none" xmlns="http://www.w3.org/2000/svg">
<path id="Vector" fill-rule="evenodd" clip-rule="evenodd" d="M8.50325 0C9.51603 0 10.3372 0.82123 10.3372 1.83398V2.66797H11.1719C12.1844 2.66798 13.0052 3.48879 13.0052 4.5013V11.1719C13.0052 12.1844 12.1844 13.0052 11.1719 13.0052H4.5013C3.48879 13.0052 2.66798 12.1844 2.66797 11.1719V10.3372H1.83398C0.821155 10.3372 0 9.51608 0 8.50325V1.83398C8.79669e-05 0.82123 0.82121 0 1.83398 0H8.50325ZM4.5013 3.66797C4.04107 3.66797 3.66797 4.04106 3.66797 4.5013V11.1719C3.66798 11.6321 4.04107 12.0052 4.5013 12.0052H11.1719C11.6321 12.0052 12.0052 11.6321 12.0052 11.1719V4.5013C12.0052 4.04107 11.6321 3.66798 11.1719 3.66797H4.5013ZM1.83398 1C1.37349 1 1.00009 1.37351 1 1.83398V8.50325C1 8.9638 1.37344 9.33724 1.83398 9.33724H2.66797V4.5013C2.66797 3.48878 3.48878 2.66797 4.5013 2.66797H9.33724V1.83398C9.33715 1.37352 8.96374 1 8.50325 1H1.83398Z" fill="var(--fill-0, black)"/>
</svg>
