<svg preserveAspectRatio="none" width="100%" height="100%" overflow="visible" style="display: block;" viewBox="0 0 19.9147 19.5019" fill="none" xmlns="http://www.w3.org/2000/svg">
<g id="Vector">
<path fill-rule="evenodd" clip-rule="evenodd" d="M7.50867 7.33594C8.85956 5.98506 11.0513 5.98508 12.4022 7.33594L12.5243 7.46583C13.7508 8.82378 13.7108 10.921 12.4022 12.2295C11.0514 13.5801 8.85953 13.58 7.50867 12.2295C6.15787 10.8787 6.15797 8.68684 7.50867 7.33594ZM11.1923 8.2627C10.4227 7.63507 9.28749 7.68018 8.5702 8.39747C7.80528 9.16258 7.80518 10.4029 8.5702 11.168C9.33527 11.9327 10.5757 11.9328 11.3407 11.168C12.0579 10.4508 12.1029 9.31548 11.4755 8.5459L11.3407 8.39747L11.1923 8.2627Z" fill="var(--fill-0, white)"/>
<path fill-rule="evenodd" clip-rule="evenodd" d="M10.5263 4.90088e-06C11.203 -0.00158922 11.8149 0.385829 12.1073 0.986333L12.162 1.10938L12.6796 2.42188C12.9198 3.02931 13.586 3.35057 14.2108 3.15918L15.5624 2.74512L15.6923 2.71094C16.3439 2.56433 17.0268 2.80163 17.4472 3.32813L18.163 4.22559C18.6116 4.78818 18.6704 5.56862 18.3124 6.19239L17.6073 7.41895C17.2825 7.98456 17.447 8.70434 17.9852 9.07325L19.1513 9.8711L19.2587 9.95118C19.7454 10.3408 19.9875 10.9613 19.8954 11.5772L19.87 11.709L19.6151 12.8272C19.4546 13.5285 18.8818 14.0624 18.1698 14.1709L16.7723 14.3848C16.1273 14.4838 15.6676 15.0609 15.7147 15.7109L15.8173 17.124L15.8222 17.2578C15.8202 17.9237 15.4387 18.5357 14.8309 18.8281L13.7958 19.3281C13.147 19.6403 12.374 19.5251 11.8446 19.0361L10.8055 18.0762C10.3557 17.661 9.67816 17.6355 9.20106 17.9981L9.10828 18.0762L8.06922 19.0361L8.06824 19.0371C7.54047 19.5229 6.76763 19.6403 6.11805 19.3272L5.08387 18.8301L5.08289 18.8291C4.43529 18.5164 4.04416 17.8401 4.09657 17.1221L4.1991 15.7109C4.24621 15.0608 3.78579 14.4836 3.14051 14.3848L1.74305 14.1699C1.03135 14.0614 0.459025 13.5286 0.29969 12.8252L0.043831 11.709L0.019417 11.5772C-0.0797645 10.9173 0.205998 10.2525 0.762581 9.8711L1.91492 9.08106C2.45538 8.71059 2.61892 7.98334 2.287 7.417L1.56629 6.18848C1.20148 5.56503 1.25534 4.78126 1.70399 4.21387L2.41395 3.31543L2.41492 3.31446C2.86294 2.75017 3.6127 2.51508 4.3036 2.72754L5.7118 3.16016C6.33859 3.35272 7.00773 3.029 7.245 2.41895L7.74989 1.1211C8.01172 0.449367 8.65877 0.00468275 9.38074 0.00293459L10.5263 4.90088e-06ZM9.38465 1.50293C9.30691 1.50324 9.23372 1.53944 9.18641 1.59864L9.14832 1.66504L8.64344 2.9629C8.12079 4.30665 6.64939 5.01681 5.27235 4.59375L3.86414 4.16211L3.86317 4.16114C3.76497 4.13081 3.65535 4.16453 3.58973 4.24708L2.88075 5.14454C2.8157 5.22687 2.80764 5.33934 2.86024 5.42969L3.58094 6.65821C4.31063 7.90339 3.95401 9.50259 2.76356 10.3184L1.61024 11.1084C1.54562 11.1527 1.50676 11.2234 1.50086 11.2979L1.50672 11.3731L1.7616 12.4922V12.4941C1.78471 12.596 1.86788 12.672 1.96961 12.6875L3.36805 12.9014C4.78615 13.1186 5.7994 14.3891 5.6952 15.8203L5.59266 17.2315C5.58508 17.3353 5.64115 17.4331 5.73524 17.4785L6.76942 17.9766C6.86162 18.0209 6.97458 18.0055 7.05262 17.9336L8.08973 16.9746L8.29383 16.8027C9.34431 16.0041 10.8349 16.0616 11.8231 16.9736L12.8622 17.9346C12.9386 18.0051 13.0496 18.0219 13.1444 17.9766L14.1805 17.4775C14.272 17.4334 14.3287 17.3368 14.3212 17.2334L14.2186 15.8203C14.1144 14.389 15.1275 13.1185 16.5458 12.9014L17.9442 12.6875C18.046 12.6719 18.1296 12.5955 18.1532 12.4932L18.4081 11.375L18.4139 11.2988C18.4082 11.2236 18.3689 11.1536 18.3055 11.1104L18.3046 11.1094L17.1376 10.3106C15.954 9.49951 15.5916 7.91522 16.3065 6.6709L17.0116 5.44532L17.0389 5.37403C17.055 5.30062 17.0385 5.22191 16.9901 5.16114L16.2743 4.26368C16.2088 4.1826 16.1007 4.14891 16.0028 4.17872L14.6503 4.59278C13.363 4.98709 11.9952 4.3923 11.3944 3.2168L11.285 2.97364L10.7665 1.66114L10.7284 1.59473C10.6808 1.53559 10.6082 1.49988 10.5302 1.5L9.38465 1.50293Z" fill="var(--fill-0, white)"/>
</g>
</svg>
