<svg preserveAspectRatio="none" width="100%" height="100%" overflow="visible" style="display: block;" viewBox="0 0 15 13.3333" fill="none" xmlns="http://www.w3.org/2000/svg">
<g id="Union">
<path d="M13.3333 10C14.2538 10 15 10.7462 15 11.6667C15 12.5871 14.2538 13.3333 13.3333 13.3333H1.66667C0.746192 13.3333 0 12.5871 0 11.6667C0 10.7462 0.746192 10 1.66667 10H13.3333Z" fill="var(--fill-0, #BFBBB1)"/>
<path d="M13.3333 5C14.2538 5 15 5.74619 15 6.66667C15 7.58714 14.2538 8.33333 13.3333 8.33333H1.66667C0.746192 8.33333 0 7.58714 0 6.66667C0 5.74619 0.746192 5 1.66667 5H13.3333Z" fill="var(--fill-0, #BFBBB1)"/>
<path d="M13.3333 0C14.2538 0 15 0.746192 15 1.66667C15 2.58714 14.2538 3.33333 13.3333 3.33333H1.66667C0.746192 3.33333 0 2.58714 0 1.66667C0 0.746192 0.746192 0 1.66667 0H13.3333Z" fill="var(--fill-0, #BFBBB1)"/>
</g>
</svg>
