<svg preserveAspectRatio="none" width="100%" height="100%" overflow="visible" style="display: block;" viewBox="0 0 11 13" fill="none" xmlns="http://www.w3.org/2000/svg">
<g id="Vector">
<path d="M4.16667 4.66667C4.44281 4.66667 4.66667 4.89052 4.66667 5.16667V9.83333C4.66667 10.1095 4.44281 10.3333 4.16667 10.3333C3.89052 10.3333 3.66667 10.1095 3.66667 9.83333V5.16667C3.66667 4.89052 3.89052 4.66667 4.16667 4.66667Z" fill="var(--fill-0, black)"/>
<path d="M6.83333 4.66667C7.10948 4.66667 7.33333 4.89052 7.33333 5.16667V9.83333C7.33333 10.1095 7.10948 10.3333 6.83333 10.3333C6.55719 10.3333 6.33333 10.1095 6.33333 9.83333V5.16667C6.33333 4.89052 6.55719 4.66667 6.83333 4.66667Z" fill="var(--fill-0, black)"/>
<path fill-rule="evenodd" clip-rule="evenodd" d="M10.5 2C10.7761 2 11 2.22386 11 2.5C11 2.77614 10.7761 3 10.5 3H10V11C10 12.1103 9.08601 12.9998 7.98763 13H2.98763C1.87731 13 1 12.0993 1 11V3H0.5C0.223858 3 0 2.77614 0 2.5C0 2.22386 0.223858 2 0.5 2H10.5ZM2 11C2 11.5581 2.44062 12 2.98763 12H7.98763C8.54498 11.9998 9 11.5468 9 11V3H2V11Z" fill="var(--fill-0, black)"/>
<path d="M6.83333 0C7.10948 0 7.33333 0.223858 7.33333 0.5C7.33333 0.776142 7.10948 1 6.83333 1H4.16667C3.89052 1 3.66667 0.776142 3.66667 0.5C3.66667 0.223858 3.89052 0 4.16667 0H6.83333Z" fill="var(--fill-0, black)"/>
</g>
</svg>
