<svg preserveAspectRatio="none" width="100%" height="100%" overflow="visible" style="display: block;" viewBox="0 0 9.39974 13" fill="none" xmlns="http://www.w3.org/2000/svg">
<path id="Vector" d="M8.39974 1.83333C8.39974 1.37281 8.02693 1 7.56641 1H1.83333C1.37281 1 1 1.37281 1 1.83333V11.6764L4.47526 9.87435L4.5306 9.84961C4.6623 9.80047 4.80983 9.80862 4.9362 9.87435L8.39974 11.6758V1.83333ZM9.39974 12.5C9.39974 12.6747 9.30886 12.8371 9.15951 12.9277C9.01017 13.0183 8.82423 13.024 8.66927 12.9434L4.70443 10.8809L0.730469 12.944C0.575469 13.0244 0.38946 13.0178 0.240234 12.9271C0.0911012 12.8364 0 12.6746 0 12.5V1.83333C0 0.820524 0.820524 0 1.83333 0H7.56641C8.57922 0 9.39974 0.820524 9.39974 1.83333V12.5Z" fill="var(--fill-0, #D2CEC4)"/>
</svg>
