<svg preserveAspectRatio="none" width="100%" height="100%" overflow="visible" style="display: block;" viewBox="0 0 10.125 10.125" fill="none" xmlns="http://www.w3.org/2000/svg">
<g id="Vector">
<path d="M5.11963 4.50293C5.40334 4.53167 5.625 4.77121 5.625 5.0625V7.56226C5.625 7.87283 5.37305 8.12462 5.0625 8.12476C4.75184 8.12476 4.5 7.87292 4.5 7.56226V5.62134C4.21865 5.59035 3.99976 5.35211 3.99976 5.0625C3.99976 4.75184 4.2516 4.5 4.56226 4.5H5.0625L5.11963 4.50293Z" fill="var(--fill-0, #B7B4AF)"/>
<path d="M5.00684 2.50342C5.35292 2.53832 5.62488 2.8302 5.625 3.1875C5.6249 3.56708 5.31685 3.87524 4.93726 3.87524C4.58144 3.87512 4.28911 3.60438 4.25391 3.25781L4.25024 3.1875C4.24984 2.82604 4.52781 2.53412 4.87793 2.50415C4.89737 2.50212 4.91728 2.50049 4.93726 2.50049L5.00684 2.50342Z" fill="var(--fill-0, #B7B4AF)"/>
<path fill-rule="evenodd" clip-rule="evenodd" d="M5.0625 0C7.85866 0 10.125 2.26634 10.125 5.0625C10.125 7.85866 7.85866 10.125 5.0625 10.125C2.26634 10.125 0 7.85866 0 5.0625C7.24685e-08 2.26634 2.26634 7.24662e-08 5.0625 0ZM5.0625 1.125C2.88766 1.125 1.125 2.88766 1.125 5.0625C1.125 7.23734 2.88766 9 5.0625 9C7.23734 9 9 7.23734 9 5.0625C9 2.88766 7.23734 1.125 5.0625 1.125Z" fill="var(--fill-0, #B7B4AF)"/>
</g>
</svg>
