<svg preserveAspectRatio="none" width="100%" height="100%" overflow="visible" style="display: block;" viewBox="0 0 10 16" fill="none" xmlns="http://www.w3.org/2000/svg">
<g id="Frame">
<path id="Union" d="M6.09487 1.207C6.23657 1.01156 6.49821 0.944628 6.71596 1.0488C6.93371 1.15315 7.04607 1.39884 6.98257 1.6318L5.65444 6.49997H9.00014C9.18851 6.50002 9.36129 6.60635 9.44643 6.77438C9.53131 6.94232 9.51472 7.14408 9.40346 7.29587L3.90346 14.7959C3.76102 14.99 3.50029 15.0546 3.28335 14.9502C3.06628 14.8454 2.95431 14.6006 3.01772 14.3681L4.34096 9.51462L1.01089 9.58883C0.821183 9.59291 0.64591 9.48931 0.557761 9.32126C0.469603 9.15313 0.483551 8.94962 0.59487 8.79587L6.09487 1.207ZM1.99624 8.56637L4.9894 8.49997C5.14695 8.49663 5.29664 8.56817 5.3937 8.69235C5.49083 8.81665 5.52405 8.9796 5.48257 9.1318L4.69253 12.0273L8.01284 7.49997H5.00014C4.84436 7.49997 4.69728 7.42744 4.60268 7.30368C4.50809 7.17983 4.47672 7.01848 4.51772 6.86813L5.29604 4.01266L1.99624 8.56637Z" fill="var(--fill-0, #CACCFF)"/>
</g>
</svg>
