<svg preserveAspectRatio="none" width="100%" height="100%" overflow="visible" style="display: block;" viewBox="0 0 15.3828 17.4915" fill="none" xmlns="http://www.w3.org/2000/svg">
<g id="Vector">
<path d="M10.2412 11.6087C13.1615 11.6087 15.3828 13.952 15.3828 16.7503C15.3826 17.1593 15.0506 17.4913 14.6416 17.4915C14.2324 17.4915 13.9006 17.1595 13.9004 16.7503C13.9004 14.7486 12.3209 13.0911 10.2412 13.0911H5.1416C3.13991 13.0911 1.48242 14.6706 1.48242 16.7503C1.48217 17.1595 1.15041 17.4915 0.741211 17.4915C0.332013 17.4915 0.000252174 17.1595 0 16.7503C0 13.83 2.3433 11.6087 5.1416 11.6087H10.2412Z" fill="var(--fill-0, white)"/>
<path fill-rule="evenodd" clip-rule="evenodd" d="M4.22754 1.40364C6.21634 -0.467736 9.26722 -0.468022 11.2559 1.40364C11.2575 1.40521 11.2591 1.40693 11.2607 1.40852C11.2644 1.41206 11.2688 1.41563 11.2725 1.41926C13.2556 3.4028 13.279 6.5907 11.2559 8.49543C9.29815 10.338 6.11884 10.507 4.19531 8.46321C2.35304 6.50557 2.18417 3.32712 4.22754 1.40364ZM10.2158 2.48469C8.80464 1.16764 6.66319 1.17142 5.25586 2.49543C3.89965 3.77186 3.93076 5.99259 5.28809 7.43489C6.56447 8.79104 8.78524 8.76082 10.2275 7.40364C11.6017 6.10981 11.6272 3.90103 10.2158 2.48469Z" fill="var(--fill-0, white)"/>
</g>
</svg>
