<svg preserveAspectRatio="none" width="100%" height="100%" overflow="visible" style="display: block;" viewBox="0 0 36 36" fill="none" xmlns="http://www.w3.org/2000/svg">
<g id="FaviconDark">
<path id="Vector" d="M11.2818 22.9761L10.3984 21.6793C11.4435 20.9654 13.1377 19.8401 13.8581 19.3749L11.2818 22.9761ZM12.7434 27.8626L7.59394 23.6022L9.06021 22.5997L10.2814 24.3952C10.5005 24.7172 10.8491 24.9061 11.2383 24.9131C11.6256 24.923 11.983 24.7447 12.2138 24.4313L15.3352 20.189L12.7434 27.8626ZM3.45388 11.8295C5.48391 12.4301 7.67019 13.0913 9.7853 13.7309C11.9487 14.385 14.1852 15.0611 16.2833 15.6818L9.49173 20.3305C7.76739 17.7797 4.23781 12.909 3.45388 11.8295ZM3.30313 10.1583L4.91463 9.23597C5.28379 9.02461 5.73934 9.02924 6.10365 9.24809L11.8321 12.6858L3.30313 10.1583ZM32.3239 12.0149C31.6643 13.0261 28.5012 17.8773 26.826 20.4477L21.9265 17.1417L19.7728 15.7014L32.3239 12.0149ZM34.2378 9.33911L30.9244 7.4627C30.5039 7.22467 29.9851 7.23173 29.5708 7.48165L18.0015 14.4782L6.3798 7.50038C5.96634 7.25178 5.44864 7.24517 5.02858 7.48319L1.76149 9.33316C1.43663 9.51719 1.20125 9.83103 1.11618 10.1945C1.03111 10.557 1.10229 10.9418 1.311 11.2506C3.44286 14.3991 7.51085 20.4517 8.04508 21.25C8.0431 21.2517 8.04067 21.2535 8.03781 21.2553L6.08734 22.5897C5.77813 22.8013 5.5908 23.1372 5.57339 23.5116C5.55619 23.8861 5.71201 24.2385 6.00073 24.4778L12.0796 29.516C12.3795 29.7646 12.7824 29.8494 13.1573 29.743C13.5326 29.6368 13.8315 29.3527 13.9564 28.9831L14.1916 28.2882C15.2715 25.1088 17.5288 18.4805 17.9874 17.1445C18.4868 18.5916 21.2034 26.5544 22.0336 28.9884C22.161 29.3619 22.4517 29.6377 22.8314 29.7448C22.9372 29.7745 23.0452 29.7891 23.1527 29.7891C23.4254 29.7891 23.6936 29.6947 23.9087 29.5167L29.9922 24.4748C30.2802 24.2358 30.4358 23.8845 30.4193 23.5108C30.4027 23.1368 30.2165 22.8007 29.9084 22.5884L28.0695 21.3218C28.5689 20.5529 33.2617 13.4236 34.6977 11.242C34.9038 10.9288 34.969 10.5561 34.8811 10.1918C34.7932 9.82706 34.5646 9.52402 34.2378 9.33911Z" fill="var(--fill-0, white)"/>
</g>
</svg>
